{
  "accessors": [
    {
      "bufferView": 2,
      "componentType": 5126,
      "count": 3642,
      "max": [
        64.07062530517578,
        59.69390869140625,
        55.45993423461914
      ],
      "min": [
        -19.662397384643555,
        -0.07643948495388031,
        -15.747992515563965
      ],
      "type": "VEC3"
    },
    {
      "bufferView": 2,
      "byteOffset": 43704,
      "componentType": 5126,
      "count": 3642,
      "max": [
        1.0,
        1.0,
        1.0
      ],
      "min": [
        -1.0,
        -1.0,
        -1.0
      ],
      "type": "VEC3"
    },
    {
      "bufferView": 3,
      "componentType": 5126,
      "count": 3642,
      "max": [
        0.9999995231628418,
        1.0,
        0.9999670386314392,
        1.0
      ],
      "min": [
        -0.9999987483024597,
        -0.9989488124847412,
        -0.9999610781669617,
        1.0
      ],
      "type": "VEC4"
    },
    {
      "bufferView": 1,
      "componentType": 5126,
      "count": 3642,
      "max": [
        0.9832580089569092,
        0.9945225119590759
      ],
      "min": [
        0.005477488040924072,
        0.005477514583617449
      ],
      "type": "VEC2"
    },
    {
      "bufferView": 1,
      "byteOffset": 29136,
      "componentType": 5126,
      "count": 3642,
      "max": [
        0.9832580089569092,
        0.9945225119590759
      ],
      "min": [
        0.005477488040924072,
        0.005477514583617449
      ],
      "type": "VEC2"
    },
    {
      "bufferView": 1,
      "byteOffset": 58272,
      "componentType": 5126,
      "count": 3642,
      "max": [
        0.9832580089569092,
        0.9945225119590759
      ],
      "min": [
        0.005477488040924072,
        0.005477514583617449
      ],
      "type": "VEC2"
    },
    {
      "bufferView": 0,
      "componentType": 5125,
      "count": 16992,
      "type": "SCALAR"
    }
  ],
  "asset": {
    "extras": {
      "author": "Ferocious Industries (https://sketchfab.com/ferociousindustries.matthias)",
      "license": "CC-BY-4.0 (http://creativecommons.org/licenses/by/4.0/)",
      "source": "https://sketchfab.com/3d-models/pbr-greek-pottery-88d4b4e87c2a412abfdf9dbe5ae35765",
      "title": "PBR Greek Pottery"
    },
    "generator": "Sketchfab-15.30.0",
    "version": "2.0"
  },
  "bufferViews": [
    {
      "buffer": 0,
      "byteLength": 67968,
      "name": "floatBufferViews",
      "target": 34963
    },
    {
      "buffer": 0,
      "byteLength": 87408,
      "byteOffset": 67968,
      "byteStride": 8,
      "name": "floatBufferViews",
      "target": 34962
    },
    {
      "buffer": 0,
      "byteLength": 87408,
      "byteOffset": 155376,
      "byteStride": 12,
      "name": "floatBufferViews",
      "target": 34962
    },
    {
      "buffer": 0,
      "byteLength": 58272,
      "byteOffset": 242784,
      "byteStride": 16,
      "name": "floatBufferViews",
      "target": 34962
    }
  ],
  "buffers": [
    {
      "byteLength": 301056,
      "uri": "scene.bin"
    }
  ],
  "images": [
    {
      "uri": "textures/Material_baseColor.png"
    },
    {
      "uri": "textures/Material_metallicRoughness.png"
    },
    {
      "uri": "textures/Material_normal.png"
    }
  ],
  "materials": [
    {
      "name": "Material",
      "normalTexture": {
        "index": 2
      },
      "occlusionTexture": {
        "index": 1
      },
      "pbrMetallicRoughness": {
        "baseColorTexture": {
          "index": 0
        },
        "metallicFactor": 0.0,
        "metallicRoughnessTexture": {
          "index": 1
        }
      }
    }
  ],
  "meshes": [
    {
      "name": "Vases_low.001_Material_0",
      "primitives": [
        {
          "attributes": {
            "NORMAL": 1,
            "POSITION": 0,
            "TANGENT": 2,
            "TEXCOORD_0": 3,
            "TEXCOORD_1": 4,
            "TEXCOORD_2": 5
          },
          "indices": 6,
          "material": 0,
          "mode": 4
        }
      ]
    }
  ],
  "nodes": [
    {
      "children": [
        1
      ],
      "matrix": [
        1.3438371419906616,
        0.0,
        0.0,
        0.0,
        0.0,
        2.9839178727689966e-16,
        -1.3438371419906616,
        0.0,
        0.0,
        1.3438371419906616,
        2.9839178727689966e-16,
        0.0,
        0.0,
        0.0,
        0.0,
        1.0
      ],
      "name": "Sketchfab_model"
    },
    {
      "children": [
        2
      ],
      "matrix": [
        0.009999999776482582,
        0.0,
        0.0,
        0.0,
        0.0,
        0.0,
        0.009999999776482582,
        0.0,
        0.0,
        -0.009999999776482582,
        0.0,
        0.0,
        0.0,
        0.0,
        0.0,
        1.0
      ],
      "name": "GreekPots_SFModel.fbx"
    },
    {
      "children": [
        3
      ],
      "name": "RootNode"
    },
    {
      "children": [
        4
      ],
      "matrix": [
        1.0887542616364072,
        0.0,
        -0.5159310002535965,
        0.0,
        0.0,
        1.204811453819275,
        0.0,
        0.0,
        0.5159310002535965,
        0.0,
        1.0887542616364072,
        0.0,
        -30.583942413330078,
        -4.6566128730773926e-08,
        -1.5223402976989746,
        1.0
      ],
      "name": "Vases_low.001"
    },
    {
      "mesh": 0,
      "name": "Vases_low.001_Material_0"
    }
  ],
  "samplers": [
    {
      "magFilter": 9729,
      "minFilter": 9987,
      "wrapS": 10497,
      "wrapT": 10497
    }
  ],
  "scene": 0,
  "scenes": [
    {
      "name": "Sketchfab_Scene",
      "nodes": [
        0
      ]
    }
  ],
  "textures": [
    {
      "sampler": 0,
      "source": 0
    },
    {
      "sampler": 0,
      "source": 1
    },
    {
      "sampler": 0,
      "source": 2
    }
  ]
}
